<?xml version="1.0" encoding="UTF-8"?>
<!DOCTYPE svg PUBLIC "-//W3C//DTD SVG 1.1//EN" "http://www.w3.org/Graphics/SVG/1.1/DTD/svg11.dtd">
<!-- Creator: CorelDRAW X7 -->
<svg xmlns="http://www.w3.org/2000/svg" xml:space="preserve" width="30mm" height="25mm" version="1.1" style="shape-rendering:geometricPrecision; text-rendering:geometricPrecision; image-rendering:optimizeQuality; fill-rule:evenodd; clip-rule:evenodd"
viewBox="0 0 3000 2500"
 xmlns:xlink="http://www.w3.org/1999/xlink">
 <defs>
  <style type="text/css">
   <![CDATA[
    .fil0 {fill:none}
    .fil1 {fill:url(#id0)}
   ]]>
  </style>
  <linearGradient id="id0" gradientUnits="userSpaceOnUse" x1="2203.01" y1="545.22" x2="796.99" y2="1954.78">
   <stop offset="0" style="stop-opacity:1; stop-color:#8485B0"/>
   <stop offset="0.501961" style="stop-opacity:1; stop-color:#596090"/>
   <stop offset="1" style="stop-opacity:1; stop-color:#373662"/>
  </linearGradient>
 </defs>
 <g id="Layer_x0020_1">
  <metadata id="CorelCorpID_0Corel-Layer"/>
  <g id="_1680499156352">
   <rect class="fil0" x="47" y="65" width="2905" height="2371"/>
   <path class="fil1" d="M550 1631l-3 -342c1,0 1,-1 2,-2 64,-28 1622,-568 1900,-665l-1 251c-58,17 -86,41 -83,74 0,51 40,36 88,47 -2,193 -6,404 -8,597 -431,166 -863,332 -1295,499 -42,-143 -168,-93 -105,46 -160,58 -320,115 -479,172 -6,-153 -12,-307 -17,-460 116,-73 117,-145 1,-217zm329 -319c31,0 56,25 56,56 0,32 -25,57 -56,57 -31,0 -57,-25 -57,-57 0,-31 26,-56 57,-56zm811 285c51,0 93,41 93,92 0,51 -42,92 -93,92 -50,0 -92,-41 -92,-92 0,-51 42,-92 92,-92zm-274 -214c24,0 43,19 43,43 0,24 -19,43 -43,43 -24,0 -43,-19 -43,-43 0,-24 19,-43 43,-43zm-853 -116l0 0 1880 -653 -886 -422 -991 1072c0,0 -1,1 -3,3zm1538 -48c48,0 86,38 86,86 0,47 -38,86 -86,86 -47,0 -86,-39 -86,-86 0,-48 39,-86 86,-86zm-567 -596c40,0 72,32 72,72 0,40 -32,73 -72,73 -40,0 -73,-33 -73,-73 0,-40 33,-72 73,-72z"/>
  </g>
 </g>
</svg>
