<?xml version="1.0" encoding="UTF-8"?>
<!DOCTYPE svg PUBLIC "-//W3C//DTD SVG 1.1//EN" "http://www.w3.org/Graphics/SVG/1.1/DTD/svg11.dtd">
<!-- Creator: CorelDRAW X7 -->
<svg xmlns="http://www.w3.org/2000/svg" xml:space="preserve" width="30mm" height="25mm" version="1.1" style="shape-rendering:geometricPrecision; text-rendering:geometricPrecision; image-rendering:optimizeQuality; fill-rule:evenodd; clip-rule:evenodd"
viewBox="0 0 3000 2500"
 xmlns:xlink="http://www.w3.org/1999/xlink">
 <defs>
  <style type="text/css">
   <![CDATA[
    .fil0 {fill:none}
    .fil2 {fill:url(#id0)}
    .fil1 {fill:url(#id1)}
   ]]>
  </style>
  <linearGradient id="id0" gradientUnits="userSpaceOnUse" x1="2433.37" y1="1300.83" x2="1592.81" y2="2148.96">
   <stop offset="0" style="stop-opacity:1; stop-color:#8485B0"/>
   <stop offset="0.501961" style="stop-opacity:1; stop-color:#596090"/>
   <stop offset="1" style="stop-opacity:1; stop-color:#373662"/>
  </linearGradient>
  <linearGradient id="id1" gradientUnits="userSpaceOnUse" xlink:href="#id0" x1="1186.31" y1="912.58" x2="794.85" y2="1315.3">
  </linearGradient>
 </defs>
 <g id="Layer_x0020_1">
  <metadata id="CorelCorpID_0Corel-Layer"/>
  <g id="_1680503380960">
   <rect class="fil0" x="47" y="65" width="2905" height="2371"/>
   <path class="fil1" d="M317 1809c-17,18 20,58 43,39 273,-320 545,-640 818,-960 19,-24 -27,-60 -44,-40 -272,321 -545,641 -817,961zm243 -132c39,-105 120,-166 226,-202 68,-18 139,-6 211,19 48,18 96,37 144,55 -21,58 -58,100 -97,133 -193,139 -293,69 -484,-5zm262 -306c39,-106 120,-167 226,-202 69,-19 140,-6 212,18 48,19 96,37 144,56 -21,57 -58,100 -98,132 -193,140 -293,69 -484,-4zm266 -307c39,-106 120,-167 226,-202 68,-19 139,-6 211,18 48,19 96,37 144,56 -21,57 -58,100 -98,132 -193,140 -292,70 -483,-4zm112 -228c-36,-96 -17,-186 35,-274 36,-54 92,-87 157,-113 44,-16 88,-32 132,-48 20,52 20,104 12,150 -50,211 -161,222 -336,285zm-753 759c98,-56 145,-146 163,-256 7,-71 -17,-139 -53,-206 -26,-44 -52,-88 -78,-133 -53,30 -89,74 -115,118 -106,213 -21,300 83,477zm264 -309c97,-56 145,-146 162,-256 8,-70 -16,-138 -52,-205 -26,-45 -52,-89 -78,-133 -54,30 -89,73 -115,117 -106,213 -21,300 83,477zm259 -317c98,-56 145,-146 163,-256 7,-70 -17,-138 -53,-206 -26,-44 -52,-88 -78,-132 -53,30 -89,73 -115,117 -106,213 -20,300 83,477z"/>
   <path class="fil2" d="M1948 1853c-7,-145 -86,-79 -113,-23 -64,108 -153,545 8,396 68,-63 104,-282 105,-373zm487 179c104,-101 3,-116 -58,-100 -123,24 -509,245 -292,268 92,9 281,-108 350,-168zm-108 -395c23,-144 -68,-95 -106,-46 -84,93 -260,503 -73,390 80,-48 160,-255 179,-344zm-1 -323c-129,-67 -112,34 -77,86 61,109 395,405 347,192 -20,-91 -192,-232 -270,-278zm282 429c-71,-127 -112,-33 -112,30 -9,124 105,555 183,351 33,-86 -31,-299 -71,-381zm-653 -115c51,136 105,49 114,-13 28,-122 -21,-565 -128,-375 -46,81 -14,301 14,388zm-391 32c-17,145 71,93 108,42 80,-96 240,-512 57,-392 -77,50 -150,261 -165,350zm-121 -24c-104,-101 -116,1 -98,61 27,122 261,501 277,284 6,-93 -117,-278 -179,-345z"/>
  </g>
 </g>
</svg>
