<?xml version="1.0" encoding="UTF-8"?>
<!DOCTYPE svg PUBLIC "-//W3C//DTD SVG 1.1//EN" "http://www.w3.org/Graphics/SVG/1.1/DTD/svg11.dtd">
<!-- Creator: CorelDRAW X7 -->
<svg xmlns="http://www.w3.org/2000/svg" xml:space="preserve" width="30mm" height="25mm" version="1.1" style="shape-rendering:geometricPrecision; text-rendering:geometricPrecision; image-rendering:optimizeQuality; fill-rule:evenodd; clip-rule:evenodd"
viewBox="0 0 3000 2500"
 xmlns:xlink="http://www.w3.org/1999/xlink">
 <defs>
  <style type="text/css">
   <![CDATA[
    .fil0 {fill:url(#id0)}
   ]]>
  </style>
  <linearGradient id="id0" gradientUnits="userSpaceOnUse" x1="2321.25" y1="421.34" x2="678.74" y2="2078.66">
   <stop offset="0" style="stop-opacity:1; stop-color:#8485B0"/>
   <stop offset="0.501961" style="stop-opacity:1; stop-color:#596090"/>
   <stop offset="1" style="stop-opacity:1; stop-color:#373662"/>
  </linearGradient>
 </defs>
 <g id="Layer_x0020_1">
  <metadata id="CorelCorpID_0Corel-Layer"/>
  <path class="fil0" d="M323 2425c-29,-98 266,-695 496,-1035 138,7 256,45 352,120 -49,-124 -142,-210 -254,-279 60,-159 188,-327 337,-499 139,-45 312,12 523,178 38,-48 61,-119 67,-216 -34,-50 -41,-50 -49,-106 -84,-6 -96,-42 -66,-94 -105,7 -127,-20 -86,-74 -157,-33 -145,-125 38,-137 -170,-116 -97,-180 39,-191 -1,-37 31,-19 76,19 24,-86 67,-15 112,76 40,-37 75,-1 104,162 44,14 48,68 20,154 22,50 -3,126 -40,208 157,-135 80,-345 241,-336 -4,-112 26,-161 107,-125 1,-85 51,-162 115,-82 95,-78 215,27 138,116 59,70 24,112 -91,131 93,60 24,111 -139,139 85,66 -259,93 -317,202 103,-35 206,-81 208,-34 72,-18 160,-53 143,22 156,31 234,64 167,99 66,43 168,91 81,115 3,28 5,57 8,85 -1,149 -94,169 -175,30 -47,165 -95,194 -142,40 -58,30 -82,-8 -85,-90 -56,32 -80,4 -79,-67 -120,-63 -231,-59 -332,20 182,287 345,471 4,645 -77,-98 -150,-146 -219,-154 65,96 107,182 87,240 -109,121 -239,205 -390,253 -66,-84 -130,-144 -189,-167 33,95 75,163 77,220 -369,221 -731,443 -887,412z"/>
 </g>
</svg>
